# xmcd
#
# Track frame offsets: 
#        150
#        14735
#        32603
#        43584
#        54216
#        68386
#        82470
#        100428
#        109513
#        125627
#        142343
#
# Disc length: 2029 seconds
#
# Revision: 0
# Processed by: cddbd v1.5.2PL0 Copyright (c) Steve Scherf et al.
# Submitted via: ExactAudioCopyFreeDBPlugin 1.0
#
DISCID=9b07eb0b
DTITLE=the Maybelles - white Trash Jenny
DYEAR=2005
DGENRE=Country
TTITLE0=snow Plow Johnny
TTITLE1=aunt Molly Jackson
TTITLE2=right to Love
TTITLE3=twin cousins
TTITLE4=pear Tree Song
TTITLE5=white Trash Jenny
TTITLE6=another Woman Gone
TTITLE7=whiskey for My Sick Lassie
TTITLE8=tumbleweed girl
TTITLE9=walkin' blues
TTITLE10=union sea
EXTD=
EXTT0=
EXTT1=
EXTT2=
EXTT3=
EXTT4=
EXTT5=
EXTT6=
EXTT7=
EXTT8=
EXTT9=
EXTT10=
PLAYORDER=
